<?xml version="1.0" encoding="utf-8"?>
<!-- Generator: Adobe Illustrator 16.0.0, SVG Export Plug-In . SVG Version: 6.00 Build 0)  -->
<!DOCTYPE svg PUBLIC "-//W3C//DTD SVG 1.1//EN" "http://www.w3.org/Graphics/SVG/1.1/DTD/svg11.dtd">
<svg version="1.1" id="Layer_1" xmlns="http://www.w3.org/2000/svg" xmlns:xlink="http://www.w3.org/1999/xlink" x="0px" y="0px"
	 width="25px" height="25px" viewBox="0 0 25 25" enable-background="new 0 0 25 25" xml:space="preserve">
<g>
	<path fill="#FFFFFF" d="M9.439,19.609c-0.255,0-0.45-0.083-0.633-0.269l-5.08-5.472L3.57,13.642
		c-0.154-0.147-0.237-0.413-0.237-0.595s0.083-0.447,0.269-0.632l0.912-0.91c0.173-0.173,0.397-0.269,0.632-0.269
		s0.459,0.095,0.632,0.269l0.072,0.071l3.578,3.839l8.886-9.124h0.076c0.159-0.126,0.352-0.195,0.55-0.195
		c0.234,0,0.459,0.095,0.632,0.268l0.912,0.911c0.359,0.361,0.359,0.904,0,1.264L10.075,19.339
		C9.888,19.526,9.693,19.609,9.439,19.609z"/>
	<path fill="#FFFFFF" d="M18.939,6.346c0.163,0,0.325,0.065,0.455,0.195l0.912,0.911c0.26,0.261,0.26,0.651,0,0.911L9.895,19.165
		c-0.13,0.131-0.26,0.194-0.456,0.194s-0.326-0.063-0.455-0.194l-5.075-5.466l-0.131-0.196c-0.13-0.13-0.195-0.325-0.195-0.456
		c0-0.129,0.065-0.326,0.195-0.455l0.912-0.911c0.13-0.13,0.292-0.195,0.455-0.195S5.47,11.551,5.6,11.681l0.066,0.065l3.578,3.84
		c0.065,0.064,0.147,0.098,0.229,0.098c0.081,0,0.163-0.033,0.229-0.098l8.719-9.045h0.064C18.615,6.411,18.777,6.346,18.939,6.346
		 M18.939,5.846c-0.226,0-0.443,0.068-0.631,0.195h-0.102L18.06,6.194l-8.585,8.907l-3.443-3.695l-0.081-0.08
		c-0.218-0.218-0.505-0.339-0.806-0.339s-0.588,0.122-0.809,0.342l-0.912,0.91c-0.208,0.207-0.342,0.524-0.342,0.809
		c0,0.266,0.117,0.562,0.302,0.768l0.109,0.163l0.022,0.033l0.027,0.028l5.075,5.466c0.241,0.245,0.499,0.354,0.821,0.354
		c0.322,0,0.579-0.108,0.811-0.342L20.667,8.71c0.446-0.446,0.446-1.157-0.006-1.611l-0.913-0.912
		C19.528,5.967,19.241,5.846,18.939,5.846L18.939,5.846z"/>
</g>
</svg>
